<?xml version="1.0" encoding="UTF-8"?>
<svg version="1.1" xmlns="http://www.w3.org/2000/svg" width="100" height="100">
<path d="M0 0 C3.49506634 1.8269665 6.84322594 3.9035165 8.75 7.4375 C8.74041363 13.33448987 6.88937125 15.98081365 2.91026306 19.95701599 C2.23733719 20.59897415 1.56441132 21.24093231 0.87109375 21.90234375 C0.1844313 22.58051651 -0.50223114 23.25868927 -1.20970154 23.95741272 C-3.39691032 26.11114976 -5.6040802 28.24303938 -7.8125 30.375 C-9.30280051 31.83519342 -10.79174933 33.29676777 -12.27929688 34.75976562 C-15.92073196 38.33519846 -19.58020959 41.89118627 -23.25 45.4375 C-21.96130407 48.28403029 -20.63228746 50.28717611 -18.37670898 52.44262695 C-17.79948593 53.00033279 -17.22226288 53.55803864 -16.62754822 54.13264465 C-16.00666824 54.72437973 -15.38578827 55.31611481 -14.74609375 55.92578125 C-13.43496549 57.20187688 -12.12443691 58.4785889 -10.81445312 59.75585938 C-8.75128346 61.75712659 -6.6839503 63.75339151 -4.60571289 65.73901367 C-2.59715989 67.66269488 -0.60816723 69.60495309 1.37890625 71.55078125 C2.00181046 72.13644363 2.62471466 72.72210602 3.26649475 73.32551575 C7.13050515 77.1430253 8.71282124 79.76082256 8.75 85.4375 C7.45703125 87.6171875 7.45703125 87.6171875 5.5625 89.3125 C4.95019531 89.88742188 4.33789062 90.46234375 3.70703125 91.0546875 C1.58264423 92.55575138 0.32877609 93.1535383 -2.25 93.4375 C-4.07861328 92.30506897 -4.07861328 92.30506897 -5.9453125 90.53540039 C-6.64301758 89.88386993 -7.34072266 89.23233948 -8.05957031 88.56106567 C-8.78241211 87.860289 -9.50525391 87.15951233 -10.25 86.4375 C-11.30719238 85.43527908 -11.30719238 85.43527908 -12.38574219 84.41281128 C-17.20292377 79.81258994 -21.92946977 75.11831426 -26.66162109 70.4309082 C-28.39536528 68.71891349 -30.13535429 67.01322121 -31.88134766 65.3137207 C-34.4146002 62.8471327 -36.92782047 60.36163502 -39.4375 57.87109375 C-40.2217334 57.11469101 -41.0059668 56.35828827 -41.81396484 55.57896423 C-42.52891113 54.86124344 -43.24385742 54.14352264 -43.98046875 53.40405273 C-44.61364014 52.78118881 -45.24681152 52.15832489 -45.89916992 51.5165863 C-47.78751156 48.61020652 -47.75262231 46.84047338 -47.25 43.4375 C-45.63101196 41.09025574 -45.63101196 41.09025574 -43.33447266 38.82495117 C-42.05281723 37.53913399 -42.05281723 37.53913399 -40.74526978 36.2273407 C-39.81097137 35.32087296 -38.87667297 34.41440521 -37.9140625 33.48046875 C-36.95354825 32.52861368 -35.9942856 31.57549409 -35.03622437 30.62117004 C-32.51516568 28.11731443 -29.97617723 25.63241488 -27.43341064 23.15063477 C-25.35793554 21.11881024 -23.29557398 19.07395654 -21.23377419 17.02826977 C-16.97761724 12.80605685 -12.71130148 8.5939829 -8.42431641 4.40307617 C-7.66486725 3.65950363 -6.90541809 2.91593109 -6.12295532 2.14982605 C-2.96160312 -0.74040078 -2.96160312 -0.74040078 0 0 Z " fill="#FFFFFF" transform="translate(66.25,3.5625)"/>
</svg>
