<?xml version="1.0" encoding="UTF-8"?>
<svg version="1.1" xmlns="http://www.w3.org/2000/svg" width="64" height="64">
<path d="M0 0 C5.03436736 0.20566687 7.55911781 3.08324882 10.8125 6.5625 C11.31458984 7.08263672 11.81667969 7.60277344 12.33398438 8.13867188 C13.56529127 9.4168857 14.7839407 10.70727147 16 12 C20.97357699 10.01286647 23.94784407 5.90616922 27.46484375 2.01953125 C30 0 30 0 32.81640625 0.19921875 C33.53699219 0.46347656 34.25757813 0.72773438 35 1 C35.87109375 3.10546875 35.87109375 3.10546875 36 6 C34.34633148 8.43906425 32.23058898 10.33210352 30.0625 12.3125 C29.1972168 13.13717773 29.1972168 13.13717773 28.31445312 13.97851562 C26.88938934 15.33291509 25.44634142 16.66834644 24 18 C25.98713353 22.97357699 30.09383078 25.94784407 33.98046875 29.46484375 C36 32 36 32 35.80078125 34.81640625 C35.40439453 35.89728516 35.40439453 35.89728516 35 37 C32.89453125 37.87109375 32.89453125 37.87109375 30 38 C27.56093575 36.34633148 25.66789648 34.23058898 23.6875 32.0625 C22.86282227 31.1972168 22.86282227 31.1972168 22.02148438 30.31445312 C20.66708491 28.88938934 19.33165356 27.44634142 18 26 C13.02642301 27.98713353 10.05215593 32.09383078 6.53515625 35.98046875 C4 38 4 38 1.18359375 37.80078125 C0.46300781 37.53652344 -0.25757813 37.27226563 -1 37 C-1.87109375 34.89453125 -1.87109375 34.89453125 -2 32 C-0.34633148 29.56093575 1.76941102 27.66789648 3.9375 25.6875 C4.51435547 25.13771484 5.09121094 24.58792969 5.68554688 24.02148438 C7.11061066 22.66708491 8.55365858 21.33165356 10 20 C8.01286647 15.02642301 3.90616922 12.05215593 0.01953125 8.53515625 C-2 6 -2 6 -1.86328125 3.24609375 C-1 1 -1 1 0 0 Z " fill="#FFFFFF" transform="translate(15,13)"/>
</svg>
